<svg width="104" height="35" viewBox="0 0 104 35" fill="none" xmlns="http://www.w3.org/2000/svg">
<path d="M12.5429 23.7421C13.0498 23.7421 13.4742 23.9189 13.8279 24.2607C14.1815 24.6262 14.3466 25.0506 14.3466 25.5457C14.3466 26.0526 14.1698 26.4888 13.8279 26.8424C13.4742 27.1961 13.0498 27.3611 12.5429 27.3611H1.82721C1.75648 27.3611 1.69754 27.3493 1.6386 27.3375C1.3321 27.314 1.06096 27.2197 0.825194 27.0428C0.412597 26.7717 0.15325 26.3945 0.0471539 25.8993C-0.0589424 25.4042 0.0353654 24.9563 0.318289 24.5437L9.14786 11.2581H1.82721C1.32031 11.2581 0.895925 11.0812 0.54227 10.7394C0.188616 10.3739 0 9.94953 0 9.45441C0 8.94751 0.176827 8.52312 0.54227 8.16947C0.895925 7.80403 1.32031 7.6272 1.82721 7.6272H12.5547C12.9202 7.63899 13.2503 7.74508 13.545 7.9337C13.9576 8.20483 14.2169 8.58206 14.2994 9.07718C14.4055 9.5723 14.323 10.032 14.0519 10.4564L5.19872 23.7421H12.5429Z" fill="white"/>
<path d="M33.0778 15.6433C33.0778 16.3034 32.9128 16.9164 32.5709 17.4705C31.8754 18.6729 30.8262 19.2741 29.447 19.2741L20.417 19.2977C20.417 20.5237 20.8532 21.5729 21.7137 22.4452C22.5861 23.3176 23.6235 23.7419 24.8612 23.7419H25.0027C26.4998 23.7419 27.7023 23.1289 28.5982 21.9029C29.1169 21.1956 29.8006 20.9834 30.6376 21.2782C31.2152 21.4786 31.6043 21.8558 31.7811 22.4452C31.9579 23.0346 31.8754 23.5887 31.5099 24.072C29.8949 26.2765 27.7258 27.3728 25.0027 27.3728H24.8612C22.645 27.3728 20.7471 26.5948 19.1792 25.0269C17.6113 23.4708 16.8215 21.5964 16.7861 19.3802V15.6551C16.7861 13.427 17.576 11.5291 19.1556 9.973C20.7353 8.39334 22.6332 7.60352 24.8612 7.60352H25.0027C27.2543 7.60352 29.164 8.40513 30.7437 10.0084C31.4982 10.7746 32.064 11.647 32.4766 12.6254C32.7006 13.1559 32.8538 13.7099 32.9481 14.2758C33.0424 14.7238 33.0896 14.9595 33.0896 14.9595C33.0896 14.9595 33.0778 15.1835 33.0778 15.6433ZM20.417 15.6668H29.4234C29.4116 14.4526 28.9754 13.4034 28.1267 12.5193C27.2425 11.647 26.2051 11.2226 25.0027 11.2226H24.8612C23.6352 11.2226 22.5861 11.6588 21.7137 12.5193C20.8414 13.3917 20.417 14.429 20.417 15.6433V15.6668Z" fill="white"/>
<path d="M38.0059 35.0002C37.499 35.0002 37.0628 34.8233 36.7091 34.4815C36.3555 34.116 36.1904 33.6798 36.1904 33.1847V9.372C36.1904 8.87688 36.3673 8.4525 36.7091 8.08705C37.0746 7.7334 37.499 7.56836 38.0059 7.56836C38.9371 7.56836 39.5148 8.02811 39.7506 8.94761C41.1062 8.02811 42.6152 7.56836 44.2538 7.56836H44.3952C46.6232 7.56836 48.5212 8.35819 50.1008 9.93784C51.6805 11.5175 52.4703 13.4154 52.4703 15.6435V19.3333C52.4703 21.5613 51.6805 23.4592 50.1008 25.0389C48.5212 26.6185 46.6232 27.4084 44.3952 27.4084H44.2538C42.6387 27.4084 41.1534 26.9604 39.8095 26.0645V33.1729C39.8095 33.6798 39.6327 34.116 39.2908 34.4697C38.9254 34.8233 38.501 35.0002 38.0059 35.0002ZM39.8095 19.3333C39.8095 20.5593 40.2457 21.6084 41.1062 22.4808C41.9786 23.3531 43.016 23.7775 44.2538 23.7775H44.3952C45.6094 23.7775 46.6586 23.3413 47.5192 22.4808C48.4033 21.6084 48.8395 20.5711 48.8395 19.3333V15.6317C48.8395 14.4057 48.4033 13.3565 47.5192 12.4842C46.6468 11.6118 45.6094 11.1874 44.3952 11.1874H44.2538C43.0277 11.1874 41.9786 11.6236 41.1062 12.4842C40.2339 13.3565 39.8095 14.3939 39.8095 15.6317V19.3333Z" fill="white"/>
<path d="M57.3975 35.0003C56.8906 35.0003 56.4544 34.8235 56.1007 34.4816C55.7471 34.1162 55.582 33.68 55.582 33.1849V9.37214C55.582 8.87702 55.7589 8.45263 56.1007 8.08719C56.4662 7.73354 56.9023 7.5685 57.3975 7.5685C58.3287 7.5685 58.9064 8.02825 59.1422 8.94775C60.4978 8.00467 62.0068 7.54492 63.6454 7.54492H63.7868C66.0148 7.54492 67.9128 8.33475 69.4924 9.91441C71.0721 11.4941 71.8619 13.392 71.8619 15.62V19.3334C71.8619 21.5614 71.0721 23.4594 69.4924 25.039C67.9128 26.6187 66.0148 27.4085 63.7868 27.4085H63.6454C62.0303 27.4085 60.545 26.9606 59.2011 26.0646V33.1731C59.2011 33.68 59.0243 34.1162 58.6824 34.4698C58.317 34.8235 57.8926 35.0003 57.3975 35.0003ZM59.2011 19.3334C59.2011 20.5594 59.6373 21.6086 60.4978 22.4809C61.3584 23.3533 62.4076 23.7777 63.6454 23.7777H63.7868C65.001 23.7777 66.0502 23.3415 66.9108 22.4809C67.7949 21.6086 68.2311 20.5712 68.2311 19.3334V15.6318C68.2311 14.4058 67.7949 13.3566 66.9108 12.4843C66.0384 11.6119 65.001 11.1876 63.7868 11.1876H63.6454C62.4194 11.1876 61.3702 11.6237 60.4978 12.4843C59.6255 13.3566 59.2011 14.394 59.2011 15.6318V19.3334Z" fill="white"/>
<path d="M82.6602 23.742C83.1671 23.742 83.5915 23.9188 83.9452 24.2607C84.3106 24.6261 84.4874 25.0505 84.4874 25.5456C84.4874 26.0525 84.3106 26.4887 83.9452 26.8424C83.5915 27.196 83.1671 27.3611 82.6602 27.3611H82.6366C80.4086 27.3611 78.5107 26.5712 76.931 24.9916C75.3513 23.4119 74.5615 21.514 74.5615 19.286V1.80364C74.5615 1.30852 74.7384 0.884136 75.0802 0.518693C75.4457 0.165039 75.87 0 76.377 0C76.8721 0 77.2964 0.176827 77.6619 0.518693C78.0155 0.884136 78.1806 1.30852 78.1806 1.80364V7.81576H81.1159C81.6228 7.81576 82.0472 7.99259 82.4009 8.33446C82.7663 8.68811 82.9431 9.1125 82.9431 9.6194C82.9431 10.1263 82.7663 10.5507 82.4009 10.9043C82.0472 11.2698 81.6228 11.4466 81.1159 11.4466H78.1806V19.286C78.1806 20.512 78.6168 21.5611 79.4773 22.4335C80.3497 23.3058 81.3871 23.7302 82.6248 23.7302H82.6602V23.742Z" fill="white"/>
<path d="M95.027 7.50903C97.2551 7.50903 99.153 8.29886 100.733 9.87852C102.312 11.4582 103.102 13.3561 103.102 15.5841V19.2857C103.102 21.5137 102.312 23.4117 100.733 24.9914C99.153 26.571 97.2551 27.3608 95.027 27.3608H94.8974C92.6694 27.3608 90.7714 26.571 89.1917 24.9914C87.6121 23.4117 86.8223 21.5137 86.8223 19.2857V15.5841C86.8223 13.3561 87.6121 11.4582 89.1917 9.87852C90.7714 8.29886 92.6694 7.50903 94.8974 7.50903H95.027ZM99.4713 15.5841C99.4713 14.3581 99.0351 13.309 98.151 12.4366C97.2786 11.5643 96.2413 11.1399 95.027 11.1399H94.8974C93.6714 11.1399 92.6222 11.5761 91.7498 12.4366C90.8775 13.309 90.4531 14.3464 90.4531 15.5841V19.2857C90.4531 20.5117 90.8893 21.5609 91.7498 22.4333C92.6222 23.3056 93.6596 23.73 94.8974 23.73H95.0388C96.2531 23.73 97.3022 23.2938 98.1628 22.4333C99.0469 21.5609 99.4831 20.5235 99.4831 19.2857V15.5841H99.4713Z" fill="white"/>
</svg>
